# xmcd
#
# Track frame offsets:
#	183
#	81350
#	132608
#	172833
#	212138
#	238518
#	261295
#	289693
#
# Disc length: 4034 seconds
#
# Revision: 1
# Processed by: cddbd v1.5.1PL0 Copyright (c) Steve Scherf et al.
# Submitted via: EasyCDDAExtractor 6.2.0.3
#
DISCID=730fc008
DTITLE=L. v. Beethoven - Gulda, Stein, Wiener Philharmoniker
DYEAR=1900
DGENRE=Klassik
TTITLE0=Konzert für Klavier und Orchester Nr. 1 C-dur op.15 1. Satz Allegro as
TTITLE0=sai
TTITLE1=Konzert für Klavier und Orchester Nr. 1 C-dur op.15 2. Satz Largo
TTITLE2=Konzert für Klavier und Orchester Nr. 1 C-dur op.15 3. Satz Rondo. All
TTITLE2=egro scherzando
TTITLE3=Klaviersonate Nr. 23 f-moll op. 57 "Appassionata" 1. Satz Allegro con 
TTITLE3=brio
TTITLE4=Klaviersonate Nr. 23 f-moll op. 57 2. Satz Andante con moto - attaca:
TTITLE5=Klaviersonate Nr. 23 f-moll op. 57 3. Satz Allegro ma non troppo - Pre
TTITLE5=sto
TTITLE6=Klaviersonate Nr. 24 Fis-dur op.78 "à Thérèse"  1. SAtz Adagio cantabi
TTITLE6=le - Allegro ma non troppo
TTITLE7=Klaviersonate Nr. 24 Fis-dur op.78 2. Satz Allegro vivace
EXTD=
EXTT0=
EXTT1=
EXTT2=
EXTT3=
EXTT4=
EXTT5=
EXTT6=
EXTT7=
PLAYORDER=
